<?xml version="1.0" encoding="UTF-8" standalone="no"?>
<!DOCTYPE svg PUBLIC "-//W3C//DTD SVG 1.1//EN" "http://www.w3.org/Graphics/SVG/1.1/DTD/svg11.dtd">
<svg width="100%" height="100%" viewBox="0 0 204 204" version="1.1" xmlns="http://www.w3.org/2000/svg" xmlns:xlink="http://www.w3.org/1999/xlink" xml:space="preserve" xmlns:serif="http://www.serif.com/" style="fill-rule:evenodd;clip-rule:evenodd;stroke-linejoin:round;stroke-miterlimit:2;">
    <g transform="matrix(1,0,0,1,-1302.22,-179.992)">
        <g transform="matrix(270.934,345.275,345.275,-270.934,1265.18,83.3909)">
            <path d="M0.265,-0.018C0.243,-0.046 0.248,-0.088 0.277,-0.11L0.501,-0.286L0.632,0.201L0.563,0.256C0.535,0.278 0.494,0.273 0.472,0.244L0.265,-0.018Z" style="fill:url(#_Linear1);fill-rule:nonzero;"/>
        </g>
        <g transform="matrix(102.353,-300.706,-300.706,-102.353,1341.53,541.724)">
            <path d="M0.579,0.328L0.516,0.306C0.469,0.29 0.444,0.239 0.46,0.192L0.609,-0.245C0.625,-0.292 0.676,-0.317 0.723,-0.301L1.045,-0.191L0.579,0.328Z" style="fill:url(#_Linear2);fill-rule:nonzero;"/>
        </g>
        <g transform="matrix(-34.6565,-147.092,-147.092,34.6565,1370.12,294.207)">
            <g>
                <ellipse cx="0.397" cy="-0" rx="0.11" ry="0.11" style="fill:url(#_Linear3);"/>
            </g>
        </g>
        <g transform="matrix(-216.453,125.609,125.609,216.453,1509.96,233.127)">
            <g>
                <path d="M0.204,-0.007L0.29,0.015C0.277,-0.015 0.289,-0.051 0.318,-0.068L0.582,-0.221C0.613,-0.239 0.654,-0.228 0.672,-0.197L0.786,-0.001C0.798,0.02 0.778,0.047 0.754,0.04L0.676,0.019L0.446,0.153C0.416,0.17 0.378,0.161 0.358,0.133L0.333,0.215C0.326,0.238 0.295,0.242 0.283,0.221L0.174,0.033C0.162,0.012 0.181,-0.014 0.204,-0.007Z" style="fill:url(#_Linear4);fill-rule:nonzero;"/>
            </g>
        </g>
        <g transform="matrix(273.926,378.604,378.604,-273.926,1285.48,139.775)">
            <g>
                <path d="M0.501,0.026L0.405,-0.106C0.393,-0.122 0.371,-0.125 0.356,-0.114L0.302,-0.075C0.286,-0.064 0.283,-0.042 0.294,-0.026L0.39,0.106C0.401,0.122 0.423,0.125 0.439,0.114L0.493,0.075C0.508,0.064 0.512,0.042 0.501,0.026Z" style="fill:url(#_Linear5);fill-rule:nonzero;"/>
            </g>
        </g>
    </g>
    <defs>
        <linearGradient id="_Linear1" x1="0" y1="0" x2="1" y2="0" gradientUnits="userSpaceOnUse" gradientTransform="matrix(1,0,0,-1,0,-0.00829989)"><stop offset="0" style="stop-color:rgb(217,224,33);stop-opacity:1"/><stop offset="0" style="stop-color:rgb(217,224,33);stop-opacity:1"/><stop offset="1" style="stop-color:rgb(0,187,69);stop-opacity:1"/><stop offset="1" style="stop-color:rgb(0,187,69);stop-opacity:1"/></linearGradient>
        <linearGradient id="_Linear2" x1="0" y1="0" x2="1" y2="0" gradientUnits="userSpaceOnUse" gradientTransform="matrix(1,5.55112e-17,5.55112e-17,-1,0,0.0111772)"><stop offset="0" style="stop-color:rgb(217,224,33);stop-opacity:1"/><stop offset="0" style="stop-color:rgb(217,224,33);stop-opacity:1"/><stop offset="1" style="stop-color:rgb(0,187,69);stop-opacity:1"/><stop offset="1" style="stop-color:rgb(0,187,69);stop-opacity:1"/></linearGradient>
        <linearGradient id="_Linear3" x1="0" y1="0" x2="1" y2="0" gradientUnits="userSpaceOnUse" gradientTransform="matrix(-0.923018,-0.384756,-0.384756,0.923018,0.763835,0.152828)"><stop offset="0" style="stop-color:white;stop-opacity:1"/><stop offset="0" style="stop-color:white;stop-opacity:1"/><stop offset="1" style="stop-color:rgb(153,153,153);stop-opacity:1"/></linearGradient>
        <linearGradient id="_Linear4" x1="0" y1="0" x2="1" y2="0" gradientUnits="userSpaceOnUse" gradientTransform="matrix(1,5.55112e-17,5.55112e-17,-1,0,0.00242962)"><stop offset="0" style="stop-color:white;stop-opacity:1"/><stop offset="0" style="stop-color:white;stop-opacity:1"/><stop offset="1" style="stop-color:rgb(153,153,153);stop-opacity:1"/></linearGradient>
        <linearGradient id="_Linear5" x1="0" y1="0" x2="1" y2="0" gradientUnits="userSpaceOnUse" gradientTransform="matrix(1,0,0,-1,0,-1.00315e-06)"><stop offset="0" style="stop-color:white;stop-opacity:1"/><stop offset="0" style="stop-color:white;stop-opacity:1"/><stop offset="1" style="stop-color:rgb(153,153,153);stop-opacity:1"/></linearGradient>
    </defs>
</svg>
